<svg width="364" height="85" viewBox="0 0 364 85" fill="none" xmlns="http://www.w3.org/2000/svg">
<path d="M22.4016 62.72C20.0976 62.72 16.6416 62.144 12.8976 61.088C14.9136 50.72 16.8336 40.352 17.6976 35.744C22.3056 31.04 28.6416 26.912 32.9616 26.912C36.7056 26.912 39.6816 30.272 39.6816 37.472C39.6816 50.144 32.0976 62.72 22.4016 62.72ZM8.38563 84.32C9.15363 80.576 10.2096 74.72 11.4576 68.384C14.0496 68.864 16.4496 69.056 18.6576 69.056C35.5536 69.056 47.0736 52.832 47.0736 35.552C47.0736 25.088 42.4656 19.808 36.5136 19.808C31.0416 19.808 24.1296 24.416 18.5616 29.984C19.1376 26.624 19.8096 22.112 20.0016 20.672L12.8016 21.152C10.4016 36.704 7.04163 53.504 0.993625 84.896L8.38563 84.32ZM100.719 65.216L100.047 61.184C85.6469 65.888 82.7669 63.008 99.4709 22.304L95.9189 20.288C89.7749 23.072 82.6709 24.992 76.8149 25.664C77.1989 24.32 77.3909 23.072 77.3909 21.92C77.3909 19.232 75.9509 17.696 73.7429 17.696C69.1349 17.696 64.3349 22.976 64.3349 26.912C64.3349 29.216 66.1589 30.656 69.0389 31.328C66.2549 37.376 62.1269 43.136 56.2709 50.144L59.2469 52.928C65.4869 46.304 71.1509 38.528 74.4149 31.808C78.9269 31.712 84.3029 30.752 89.5829 29.216C73.1669 67.424 79.9829 74.432 100.719 65.216ZM149.948 62.624L148.988 58.688C127.196 65.888 118.076 62.72 118.076 50.336V50.24C140.156 48.608 152.54 41.984 152.54 31.04C152.54 24.128 147.452 19.808 139.196 19.808C122.972 19.808 110.78 36.416 110.78 51.296C110.78 67.04 124.412 75.68 149.948 62.624ZM137.372 26.048C142.268 26.048 145.34 28.64 145.34 32.48C145.34 40.352 134.78 44.672 118.46 45.824C120.092 35.84 127.196 26.048 137.372 26.048ZM199.177 36.608H170.665L169.417 43.136H198.025L199.177 36.608ZM233.527 62.72C231.223 62.72 227.767 62.144 224.023 61.088C226.039 50.72 227.959 40.352 228.823 35.744C233.431 31.04 239.767 26.912 244.087 26.912C247.831 26.912 250.807 30.272 250.807 37.472C250.807 50.144 243.223 62.72 233.527 62.72ZM219.511 84.32C220.279 80.576 221.335 74.72 222.583 68.384C225.175 68.864 227.575 69.056 229.783 69.056C246.679 69.056 258.199 52.832 258.199 35.552C258.199 25.088 253.591 19.808 247.639 19.808C242.167 19.808 235.255 24.416 229.687 29.984C230.263 26.624 230.935 22.112 231.127 20.672L223.927 21.152C221.527 36.704 218.167 53.504 212.119 84.896L219.511 84.32ZM298.692 12.896L302.532 0.0319996L293.892 0.511999L290.916 13.28L298.692 12.896ZM308.58 63.776L307.716 59.648C288.324 64.544 285.828 62.72 288.036 54.08L296.676 21.056L290.052 20.96L270.276 25.856L270.756 29.888L287.748 27.584L280.452 55.328C276.804 69.056 284.868 73.472 308.58 63.776ZM339.089 62.72C336.785 62.72 333.329 62.144 329.585 61.088C331.601 50.72 333.521 40.352 334.385 35.744C338.993 31.04 345.329 26.912 349.649 26.912C353.393 26.912 356.369 30.272 356.369 37.472C356.369 50.144 348.785 62.72 339.089 62.72ZM325.073 84.32C325.841 80.576 326.897 74.72 328.145 68.384C330.737 68.864 333.137 69.056 335.345 69.056C352.241 69.056 363.761 52.832 363.761 35.552C363.761 25.088 359.153 19.808 353.201 19.808C347.729 19.808 340.817 24.416 335.249 29.984C335.825 26.624 336.497 22.112 336.689 20.672L329.489 21.152C327.089 36.704 323.729 53.504 317.681 84.896L325.073 84.32Z" fill="#84CC16"/>
</svg>
